<svg width="1280" height="261" viewBox="0 0 1280 261" fill="none" xmlns="http://www.w3.org/2000/svg">
<path d="M1273.26 149.544V97.0649C1273.26 95.6012 1271.6 94.4157 1269.54 94.4157H1256.31C1254.25 94.4157 1252.59 95.6012 1252.59 97.0649V121.41H1238.2V110.785C1238.2 109.258 1236.46 108.018 1234.31 108.018H1213.38V99.8555C1213.38 98.328 1211.64 97.0877 1209.5 97.0877H1189.86C1187.71 97.0877 1185.97 98.328 1185.97 99.8555V117.725C1185.69 117.388 1185.41 117.046 1185.12 116.699C1183.01 114.146 1181.16 111.497 1178.93 108.993C1176.8 106.595 1175.03 106.704 1173.15 109.139C1170.26 112.851 1167.38 116.567 1164.4 120.242C1164.01 120.721 1163.02 120.986 1162.2 121.401C1161.26 120.521 1160.52 119.832 1159.34 118.733C1154.28 128.199 1158 137.652 1155.69 146.598C1151.78 147.341 1150.57 146.406 1150.73 144.076C1150.95 140.989 1150.79 137.893 1150.79 134.638H1129.18V150.852C1128.62 150.857 1128.07 150.866 1127.52 150.871C1126.54 135.832 1125.55 120.794 1124.55 105.418H1093.07V113.936C1088.35 113.512 1084.05 113.321 1079.9 112.691C1076.71 112.208 1075.55 113.056 1075.38 114.844C1075.2 116.868 1075.34 118.902 1075.34 120.917C1073.42 121.204 1072.01 121.414 1070.22 121.683V129.243H1060.96V81.8169H1016.67V101.912H1004.66C1003.27 103.718 1002.65 105.318 1001.13 106.344C996.454 109.513 994.771 113.284 994.879 117.557C994.905 118.747 994.783 119.941 994.886 121.127C995.033 122.823 993.843 123.457 991.372 123.402C988.461 123.343 985.542 123.389 982.023 123.389V127.237C982.029 134.059 982.106 140.88 981.965 147.697C981.946 148.8 980.941 149.895 980.391 150.994C978.695 150.155 976.487 149.539 975.386 148.44C971.828 144.884 968.679 141.154 965.857 138.03C963.368 140.333 960.609 142.813 957.979 145.349C957.282 146.019 956.853 146.808 956.303 147.546V101.196C956.303 98.5058 953.237 96.3217 949.461 96.3217H932.259C932.349 81.5616 932.131 66.8015 932.048 52.0415V52.0141C932.048 50.5641 930.397 49.3877 928.362 49.3877H900.434C898.246 49.3877 896.467 50.6462 896.454 52.2011V52.2284C896.441 53.6921 896.435 55.1558 896.415 56.6195H869.268C864.961 56.6195 861.474 59.1046 861.474 62.1733V104.529C860.616 103.125 858.645 102.181 856.431 102.181C851.701 102.186 847.075 102.19 842.448 102.181C838.877 102.172 835.152 101.757 833.507 104.821C833.226 105.336 831.3 105.637 830.084 105.738C823.825 106.253 822.359 107.233 822.315 111.387C822.257 116.8 822.295 122.217 822.295 127.629V135.226C822.052 135.54 821.809 135.851 821.559 136.165C814.673 131.072 807.506 136.79 800.114 135.116C800.114 133.803 800.121 132.631 800.114 131.459C800.025 120.101 800.012 108.743 799.75 97.3886C799.705 95.6377 798.649 93.8639 797.798 92.1586C794.617 85.8068 788.55 80.1982 787.347 73.2947C786.739 69.8292 784.621 66.4732 783.066 62.7707C779.757 62.7707 776.385 63.1035 773.23 62.7023C767.489 61.9681 765.857 63.8468 764.955 67.0797C763.65 71.7261 762.223 76.3953 760.059 80.8959C758.12 84.9358 754.978 88.7205 752.661 92.6966C751.746 94.2561 751.305 96.0116 751.228 97.6896C751.036 102.09 751.164 106.495 751.164 111.009H742.48V36.757C740.726 36.5837 739.254 36.4424 738.742 36.3922C739.331 33.6883 739.849 31.3081 740.413 28.7044C737.462 28.5767 734.736 28.4627 731.3 28.3168C730.928 23.219 730.564 18.226 730.199 13.2285C729.521 13.1464 726.276 13.4838 726.276 13.4838L725.751 25.2025H718.686V21.8556C718.693 15.4719 718.757 0.356153 718.757 0.356153C718.757 0.356153 717.739 -0.487409 713.675 0.42911V25.435H699.532C699.11 26.5932 698.783 27.4869 698.47 28.3533C695.942 28.4855 693.721 28.5995 691.398 28.7227C692.096 31.4084 692.717 33.8068 693.382 36.3831C692.646 36.4652 691.277 36.6157 689.491 36.8117V108.15C683.527 104.634 678.279 101.31 672.641 98.3006C669.793 96.7822 668.648 95.2045 668.667 92.8061C668.789 75.4879 668.731 58.1653 668.725 40.8426V36.5837H651.817V31.3081H629.29C629.086 33.0727 628.906 34.6504 628.682 36.5609H612.594C611.576 70.8689 610.565 104.835 609.554 138.801C609.023 138.824 608.485 138.851 607.954 138.874C607.724 137.829 607.301 136.785 607.301 135.741C607.308 130.329 607.551 124.916 607.417 119.504C607.378 117.844 607.193 115.701 605.689 114.634C602.252 112.19 599.75 109.691 599.999 106.248C598.272 106.089 596.864 105.952 595.321 105.806C595.136 103.996 594.957 102.309 594.758 100.384C590.208 100.672 589.408 99.0484 589.786 96.6135C590.067 94.8306 589.843 93.0112 589.843 91.1235C586.784 91.0277 584.391 90.9502 581.645 90.859C582.509 87.7675 579.642 85.0635 581.511 82.0267H569.64C571.508 85.2049 569.262 88 569.742 90.9137C566.85 91.1053 564.642 91.2512 563.317 91.3378C561.794 96.4083 560.412 101.005 558.997 105.71C552.969 108.546 546.185 107.096 539.274 107.402C539.274 105.551 539.415 104.146 539.242 102.765C538.775 98.9846 538.371 95.2 537.559 91.4472C536.663 87.2887 535.184 83.1849 534.269 79.0263C533.424 75.2007 532.989 71.3385 532.369 67.4901C531.306 69.2045 531.153 70.9145 530.839 72.6061C530.084 76.6826 529.982 80.8913 528.286 84.7945C525.892 90.321 523.128 95.7106 523.806 101.57C524.011 103.371 523.838 105.19 523.838 107.128H512.92V91.3332C512.92 87.1565 511.141 85.711 504.838 84.8674C503.73 84.7215 502.553 84.717 501.414 84.7307C492.563 84.8264 483.713 84.8629 474.868 85.0863C469.365 85.2231 463.88 85.6472 457.781 85.98V129.189H448.598C448.598 123.398 448.47 117.798 448.63 112.203C448.937 101.543 449.046 90.8727 450.057 80.2393C450.326 77.4441 446.806 76.5458 446.365 74.5669C445.36 70.1256 443.44 65.461 444.553 61.1884C446.921 52.1053 441.507 44.4357 436.925 35.5669C432.759 43.7153 426.903 50.6006 429.118 58.8994C430.59 64.4076 428.798 69.852 425.528 75.0046C424.907 75.985 423.531 76.751 422.539 77.5854V129.458H410.169C409.881 130.734 409.676 131.669 409.477 132.549C407.833 132.777 406.444 132.969 404.742 133.201C404.742 135.481 404.882 137.643 404.652 139.786C404.601 140.214 404.012 140.616 403.436 141.012V81.5935H372.712C372.437 71.2565 372.155 60.9285 371.88 50.6051C363.746 49.83 363.695 49.8573 360.834 56.5602H324.836V50.0351H316.235V97.8492H298.291V108.697C295.77 108.191 293.203 107.653 290.528 107.128C290.074 102.619 289.568 97.6531 289.076 92.8061C288.212 97.8127 287.329 102.915 286.445 108.049C284.513 108.127 282.772 107.872 281.627 108.305C277.684 109.796 272.731 111.013 270.485 113.321C268.239 115.632 268.296 119.112 268.181 122.094C267.925 129.02 268.187 135.951 268.207 142.877C268.207 144.026 268.059 145.175 267.983 146.288H260.316V118.455C255.292 118.455 251.241 118.473 247.184 118.45C243.088 118.423 237.994 119.349 235.108 118.09C230.007 115.86 225.624 117.68 220.952 117.11C220.453 123.48 219.986 129.371 219.467 135.946C213.855 135.071 208.473 134.601 203.532 133.361C197.011 131.729 190.637 130.128 183.636 131.537C177.851 132.7 172.546 134.629 166.325 135.23C162.697 135.582 162.044 135.381 161.941 133.206C161.73 128.678 161.398 124.155 160.937 119.636C160.854 118.815 160.015 117.374 159.362 117.333C155.465 117.087 150.653 116.221 147.779 117.356C143.376 119.102 138.909 118.747 134.545 119.112C129.137 119.568 127.262 120.293 127.134 123.927C127.019 127.173 127.153 130.424 127.153 133.671C127.16 140.999 127.16 148.326 127.16 155.704H117.279C117.279 154.477 117.407 153.506 117.253 152.553C116.767 149.566 118.053 144.856 110.489 143.023C105.67 141.856 101.376 139.59 103.078 134.51C103.123 134.378 102.707 134.182 102.374 133.908C99.6095 133.817 96.7105 133.717 93.4275 133.607C93.4275 132.344 93.2931 131.277 93.4467 130.233C94.1891 125.295 91.642 121.629 84.6217 119.362C82.561 118.697 79.9052 118.355 79.4956 116.011C79.2205 114.438 75.3807 114.675 73.8768 116.189C72.8337 117.237 75.1247 118.382 70.0307 118.993C62.8823 119.855 59.4329 124.656 60.3289 129.932C60.5401 131.159 60.2009 132.422 60.1113 133.739C56.8411 133.844 54.1469 133.931 51.5294 134.013C50.9791 139.631 47.3441 143.064 40.5542 144.546C37.7895 145.148 35.8633 146.931 35.8633 148.987L35.8377 161.299L25.1184 161.239V111.351C25.1184 108.957 22.3921 107.014 19.0324 107.014H0V177.254H0.0831946V302C106.687 301.987 213.298 301.969 319.902 301.964C437.021 301.955 554.134 301.964 671.246 301.964C793.772 301.959 916.299 301.955 1038.82 301.959C1119.22 301.964 1199.61 301.987 1280 302V149.544H1273.26ZM181.467 155.594C180.571 151.035 183.271 148.632 189.351 148.408C195.373 148.18 198.01 150.264 197.92 155.594H181.467Z" fill="url(#paint0_linear)"/>
<defs>
<linearGradient id="paint0_linear" x1="640" y1="0.00195312" x2="640" y2="302" gradientUnits="userSpaceOnUse">
<stop offset="0.494792" stop-color="#DBDBF7"/>
<stop offset="1" stop-color="#DBDBF7" stop-opacity="0"/>
</linearGradient>
</defs>
</svg>
